<svg width="44" height="64" viewBox="0 0 44 64" fill="none" xmlns="http://www.w3.org/2000/svg">
<g clip-path="url(#clip0_327_1931)">
<path d="M22.0259 32C22.0259 29.1711 23.1497 26.458 25.1501 24.4576C27.1505 22.4572 29.8636 21.3334 32.6925 21.3334C35.5215 21.3334 38.2346 22.4572 40.235 24.4576C42.2354 26.458 43.3592 29.1711 43.3592 32C43.3592 34.829 42.2354 37.5421 40.235 39.5425C38.2346 41.5429 35.5215 42.6667 32.6925 42.6667C29.8636 42.6667 27.1505 41.5429 25.1501 39.5425C23.1497 37.5421 22.0259 34.829 22.0259 32Z" fill="#1ABCFE"/>
<path d="M0.692383 53.3333C0.692383 50.5043 1.81619 47.7912 3.81658 45.7908C5.81697 43.7904 8.53007 42.6666 11.359 42.6666H22.0257V53.3333C22.0257 56.1623 20.9019 58.8754 18.9015 60.8758C16.9011 62.8762 14.188 64 11.359 64C8.53007 64 5.81697 62.8762 3.81658 60.8758C1.81619 58.8754 0.692383 56.1623 0.692383 53.3333Z" fill="#0ACF83"/>
<path d="M22.0259 0V21.3333H32.6925C35.5215 21.3333 38.2346 20.2095 40.235 18.2091C42.2354 16.2087 43.3592 13.4956 43.3592 10.6667C43.3592 7.83769 42.2354 5.12458 40.235 3.12419C38.2346 1.12381 35.5215 0 32.6925 0L22.0259 0Z" fill="#FF7262"/>
<path d="M0.692383 10.6667C0.692383 13.4956 1.81619 16.2087 3.81658 18.2091C5.81697 20.2095 8.53007 21.3333 11.359 21.3333H22.0257V0H11.359C8.53007 0 5.81697 1.12381 3.81658 3.12419C1.81619 5.12458 0.692383 7.83769 0.692383 10.6667Z" fill="#F24E1E"/>
<path d="M0.692383 32C0.692383 34.829 1.81619 37.5421 3.81658 39.5425C5.81697 41.5429 8.53007 42.6667 11.359 42.6667H22.0257V21.3334H11.359C8.53007 21.3334 5.81697 22.4572 3.81658 24.4576C1.81619 26.458 0.692383 29.1711 0.692383 32Z" fill="#A259FF"/>
</g>
<defs>
<clipPath id="clip0_327_1931">
<rect width="42.6667" height="64" fill="white" transform="translate(0.692383)"/>
</clipPath>
</defs>
</svg>
