<svg xmlns="http://www.w3.org/2000/svg" xmlns:xlink="http://www.w3.org/1999/xlink" width="500" zoomAndPan="magnify" viewBox="0 0 375 374.999991" height="500" preserveAspectRatio="xMidYMid meet" version="1.0"><defs><clipPath id="d4c500821b"><path d="M 35 14.105469 L 340 14.105469 L 340 360.605469 L 35 360.605469 Z M 35 14.105469 " clip-rule="nonzero"/></clipPath></defs><rect x="-37.5" width="450" fill="#ffffff" y="-37.499999" height="449.999989" fill-opacity="1"/><rect x="-37.5" width="450" fill="#ffffff" y="-37.499999" height="449.999989" fill-opacity="1"/><g clip-path="url(#d4c500821b)"><path fill="#27aae1" d="M 325.59375 202.515625 L 325.449219 201.964844 C 324.238281 197.382812 319.539062 194.644531 314.945312 195.847656 L 253.605469 211.9375 C 251.414062 212.511719 249.082031 212.199219 247.117188 211.070312 L 218.929688 194.832031 L 218.972656 194.753906 C 213.238281 191.453125 213.238281 183.191406 218.972656 179.890625 L 248.007812 163.160156 C 249.96875 162.03125 252.300781 161.71875 254.492188 162.292969 L 314.945312 178.152344 C 319.539062 179.359375 324.238281 176.621094 325.449219 172.035156 L 325.59375 171.484375 C 326.804688 166.902344 324.054688 162.207031 319.460938 161 L 293.152344 154.097656 C 285.722656 152.152344 284.386719 142.199219 291.039062 138.367188 L 335.484375 112.757812 C 339.597656 110.390625 341.011719 105.140625 338.632812 101.035156 L 338.347656 100.542969 C 335.972656 96.4375 330.714844 95.03125 326.601562 97.402344 L 281.589844 123.335938 C 274.9375 127.167969 266.972656 121.035156 268.992188 113.640625 L 276.402344 86.570312 C 277.65625 81.996094 274.953125 77.277344 270.371094 76.027344 L 269.820312 75.878906 C 265.238281 74.632812 260.511719 77.328125 259.261719 81.898438 L 242.554688 142.957031 C 241.957031 145.140625 240.523438 146.996094 238.558594 148.128906 L 209.808594 164.691406 L 209.765625 164.617188 L 209.765625 164.621094 C 204.03125 167.921875 196.863281 163.792969 196.863281 157.1875 L 196.863281 123.085938 C 196.863281 120.828125 197.757812 118.652344 199.355469 117.046875 L 243.34375 72.730469 C 246.6875 69.363281 246.660156 63.925781 243.289062 60.59375 L 242.878906 60.191406 C 239.507812 56.855469 234.0625 56.878906 230.71875 60.246094 L 211.574219 79.535156 C 206.167969 84.984375 196.863281 81.164062 196.863281 73.496094 L 196.863281 22.277344 C 196.863281 17.539062 193.011719 13.699219 188.265625 13.699219 L 187.695312 13.699219 C 182.945312 13.699219 179.097656 17.539062 179.097656 22.277344 L 179.097656 74.148438 C 179.097656 81.8125 169.792969 85.632812 164.386719 80.1875 L 144.597656 60.246094 C 141.253906 56.878906 135.808594 56.855469 132.433594 60.191406 L 132.03125 60.59375 C 128.65625 63.925781 128.628906 69.363281 131.972656 72.730469 L 176.605469 117.699219 C 178.203125 119.304688 179.097656 121.472656 179.097656 123.738281 L 179.097656 156.910156 C 179.097656 163.519531 171.929688 167.648438 166.195312 164.347656 L 136.515625 147.246094 C 134.554688 146.113281 133.117188 144.253906 132.519531 142.070312 L 116.054688 81.898438 C 114.804688 77.328125 110.078125 74.632812 105.496094 75.878906 L 104.945312 76.027344 C 100.363281 77.277344 97.660156 81.996094 98.914062 86.570312 L 106.078125 112.757812 C 108.101562 120.152344 100.136719 126.285156 93.484375 122.453125 L 49.039062 96.84375 C 44.925781 94.472656 39.664062 95.878906 37.289062 99.984375 L 37.003906 100.476562 C 34.628906 104.582031 36.039062 109.832031 40.152344 112.199219 L 85.164062 138.132812 C 91.816406 141.96875 90.480469 151.917969 83.050781 153.867188 L 55.851562 161 C 51.257812 162.207031 48.511719 166.902344 49.722656 171.484375 L 49.867188 172.035156 C 51.074219 176.621094 55.777344 179.359375 60.371094 178.152344 L 121.710938 162.058594 C 123.902344 161.484375 126.234375 161.796875 128.195312 162.929688 L 156.386719 179.171875 L 156.339844 179.246094 L 157.460938 179.890625 C 163.195312 183.191406 163.195312 191.453125 157.460938 194.753906 L 127.3125 212.125 C 125.347656 213.257812 123.019531 213.570312 120.824219 212.992188 L 60.371094 197.136719 C 55.777344 195.929688 51.074219 198.667969 49.867188 203.253906 L 49.722656 203.804688 C 48.511719 208.390625 51.257812 213.085938 55.851562 214.289062 L 82.164062 221.1875 C 89.59375 223.136719 90.929688 233.089844 84.277344 236.921875 L 39.832031 262.53125 C 35.71875 264.902344 34.308594 270.148438 36.683594 274.253906 L 36.96875 274.746094 C 39.34375 278.847656 44.601562 280.257812 48.714844 277.886719 L 93.726562 251.953125 C 100.378906 248.121094 108.34375 254.25 106.320312 261.648438 L 98.914062 288.71875 C 97.660156 293.292969 100.363281 298.011719 104.945312 299.257812 L 105.496094 299.40625 C 110.078125 300.65625 114.804688 297.960938 116.054688 293.390625 L 132.761719 232.332031 C 133.359375 230.148438 134.796875 228.292969 136.757812 227.160156 L 165.507812 210.597656 L 165.546875 210.671875 L 166.195312 210.296875 C 171.929688 206.996094 179.097656 211.125 179.097656 217.730469 L 179.097656 251.558594 C 179.097656 253.820312 178.203125 255.992188 176.605469 257.597656 L 132.617188 301.914062 C 129.273438 305.28125 129.300781 310.71875 132.671875 314.050781 L 133.078125 314.457031 C 136.453125 317.789062 141.898438 317.765625 145.242188 314.398438 L 164.386719 295.109375 C 169.792969 289.660156 179.097656 293.480469 179.097656 301.148438 L 179.097656 352.367188 C 179.097656 357.105469 182.945312 360.949219 187.695312 360.949219 L 188.265625 360.949219 C 193.011719 360.949219 196.863281 357.105469 196.863281 352.367188 L 196.863281 300.496094 C 196.863281 292.832031 206.167969 289.011719 211.574219 294.457031 L 231.363281 314.398438 C 234.703125 317.765625 240.152344 317.789062 243.527344 314.457031 L 243.933594 314.050781 C 247.304688 310.71875 247.332031 305.28125 243.988281 301.914062 L 199.355469 256.949219 C 197.757812 255.339844 196.863281 253.171875 196.863281 250.910156 L 196.863281 217.460938 C 196.863281 210.851562 204.03125 206.722656 209.765625 210.027344 L 238.796875 226.757812 C 240.761719 227.886719 242.199219 229.746094 242.796875 231.925781 L 259.261719 292.101562 C 260.511719 296.675781 265.238281 299.371094 269.820312 298.121094 L 270.371094 297.972656 C 274.953125 296.722656 277.65625 292.003906 276.402344 287.433594 L 269.238281 261.246094 C 267.214844 253.847656 275.179688 247.714844 281.835938 251.550781 L 326.277344 277.15625 C 330.390625 279.527344 335.652344 278.121094 338.023438 274.015625 L 338.308594 273.523438 C 340.6875 269.417969 339.273438 264.167969 335.164062 261.796875 L 290.152344 235.867188 C 283.5 232.035156 284.839844 222.082031 292.265625 220.132812 L 319.460938 213 C 324.054688 211.796875 326.804688 207.101562 325.59375 202.515625 " fill-opacity="1" fill-rule="nonzero"/></g></svg>